<svg width="234" height="60" viewBox="0 0 234 60" fill="none" xmlns="http://www.w3.org/2000/svg">
<rect y="4.15417" width="7.12139" height="55.3886" rx="3.56069" fill="#9440FF"/>
<rect x="28.4856" y="4.15417" width="7.12139" height="55.3886" rx="3.56069" fill="#9440FF"/>
<rect x="56.9711" y="4.15417" width="7.12139" height="55.3886" rx="3.56069" fill="#9440FF"/>
<rect x="14.2428" width="7.12139" height="55.3886" rx="3.56069" fill="#1E2772"/>
<rect x="42.7283" width="7.12139" height="55.3886" rx="3.56069" fill="#1E2772"/>
<path d="M104.802 21.856V44H101.89V27.488L94.5304 44H92.4824L85.0904 27.456V44H82.1784V21.856H85.3144L93.5064 40.16L101.698 21.856H104.802ZM117.389 44.288C115.746 44.288 114.253 43.9147 112.909 43.168C111.586 42.4213 110.541 41.3653 109.773 40C109.026 38.6133 108.653 37.0133 108.653 35.2C108.653 33.408 109.037 31.8293 109.805 30.464C110.594 29.0773 111.661 28.0213 113.005 27.296C114.349 26.5493 115.853 26.176 117.517 26.176C119.181 26.176 120.685 26.5493 122.029 27.296C123.373 28.0213 124.429 29.0667 125.197 30.432C125.986 31.7973 126.381 33.3867 126.381 35.2C126.381 37.0133 125.976 38.6133 125.165 40C124.376 41.3653 123.298 42.4213 121.933 43.168C120.568 43.9147 119.053 44.288 117.389 44.288ZM117.389 41.728C118.434 41.728 119.416 41.4827 120.333 40.992C121.25 40.5013 121.986 39.7653 122.541 38.784C123.117 37.8027 123.405 36.608 123.405 35.2C123.405 33.792 123.128 32.5973 122.573 31.616C122.018 30.6347 121.293 29.9093 120.397 29.44C119.501 28.9493 118.53 28.704 117.485 28.704C116.418 28.704 115.437 28.9493 114.541 29.44C113.666 29.9093 112.962 30.6347 112.429 31.616C111.896 32.5973 111.629 33.792 111.629 35.2C111.629 36.6293 111.885 37.8347 112.397 38.816C112.93 39.7973 113.634 40.5333 114.509 41.024C115.384 41.4933 116.344 41.728 117.389 41.728ZM136.738 41.312L142.178 26.464H145.282L138.402 44H135.01L128.13 26.464H131.266L136.738 41.312ZM147.059 35.168C147.059 33.376 147.422 31.808 148.147 30.464C148.872 29.0987 149.864 28.0427 151.123 27.296C152.403 26.5493 153.822 26.176 155.379 26.176C156.915 26.176 158.248 26.5067 159.379 27.168C160.51 27.8293 161.352 28.6613 161.907 29.664V26.464H164.851V44H161.907V40.736C161.331 41.76 160.467 42.6133 159.315 43.296C158.184 43.9573 156.862 44.288 155.347 44.288C153.79 44.288 152.382 43.904 151.123 43.136C149.864 42.368 148.872 41.2907 148.147 39.904C147.422 38.5173 147.059 36.9387 147.059 35.168ZM161.907 35.2C161.907 33.8773 161.64 32.7253 161.107 31.744C160.574 30.7627 159.848 30.016 158.931 29.504C158.035 28.9707 157.043 28.704 155.955 28.704C154.867 28.704 153.875 28.96 152.979 29.472C152.083 29.984 151.368 30.7307 150.835 31.712C150.302 32.6933 150.035 33.8453 150.035 35.168C150.035 36.512 150.302 37.6853 150.835 38.688C151.368 39.6693 152.083 40.4267 152.979 40.96C153.875 41.472 154.867 41.728 155.955 41.728C157.043 41.728 158.035 41.472 158.931 40.96C159.848 40.4267 160.574 39.6693 161.107 38.688C161.64 37.6853 161.907 36.5227 161.907 35.2ZM181.932 31.04V33.504H169.164V31.04H181.932ZM193.605 44.288C192.261 44.288 191.056 44.064 189.989 43.616C188.922 43.1467 188.08 42.5067 187.461 41.696C186.842 40.864 186.501 39.9147 186.437 38.848H189.445C189.53 39.7227 189.936 40.4373 190.661 40.992C191.408 41.5467 192.378 41.824 193.573 41.824C194.682 41.824 195.557 41.5787 196.197 41.088C196.837 40.5973 197.157 39.9787 197.157 39.232C197.157 38.464 196.816 37.8987 196.133 37.536C195.45 37.152 194.394 36.7787 192.965 36.416C191.664 36.0747 190.597 35.7333 189.765 35.392C188.954 35.0293 188.25 34.5067 187.653 33.824C187.077 33.12 186.789 32.2027 186.789 31.072C186.789 30.176 187.056 29.3547 187.589 28.608C188.122 27.8613 188.88 27.2747 189.861 26.848C190.842 26.4 191.962 26.176 193.221 26.176C195.162 26.176 196.73 26.6667 197.925 27.648C199.12 28.6293 199.76 29.9733 199.845 31.68H196.933C196.869 30.7627 196.496 30.0267 195.813 29.472C195.152 28.9173 194.256 28.64 193.125 28.64C192.08 28.64 191.248 28.864 190.629 29.312C190.01 29.76 189.701 30.3467 189.701 31.072C189.701 31.648 189.882 32.128 190.245 32.512C190.629 32.8747 191.098 33.1733 191.653 33.408C192.229 33.6213 193.018 33.8667 194.021 34.144C195.28 34.4853 196.304 34.8267 197.093 35.168C197.882 35.488 198.554 35.9787 199.109 36.64C199.685 37.3013 199.984 38.1653 200.005 39.232C200.005 40.192 199.738 41.056 199.205 41.824C198.672 42.592 197.914 43.2 196.933 43.648C195.973 44.0747 194.864 44.288 193.605 44.288ZM220.116 34.56C220.116 35.1147 220.084 35.7013 220.02 36.32H206.004C206.111 38.048 206.697 39.4027 207.764 40.384C208.852 41.344 210.164 41.824 211.7 41.824C212.959 41.824 214.004 41.536 214.836 40.96C215.689 40.3627 216.287 39.5733 216.628 38.592H219.764C219.295 40.2773 218.356 41.6533 216.948 42.72C215.54 43.7653 213.791 44.288 211.7 44.288C210.036 44.288 208.543 43.9147 207.22 43.168C205.919 42.4213 204.895 41.3653 204.148 40C203.401 38.6133 203.028 37.0133 203.028 35.2C203.028 33.3867 203.391 31.7973 204.116 30.432C204.841 29.0667 205.855 28.0213 207.156 27.296C208.479 26.5493 209.993 26.176 211.7 26.176C213.364 26.176 214.836 26.5387 216.116 27.264C217.396 27.9893 218.377 28.992 219.06 30.272C219.764 31.5307 220.116 32.96 220.116 34.56ZM217.108 33.952C217.108 32.8427 216.863 31.8933 216.372 31.104C215.881 30.2933 215.209 29.6853 214.356 29.28C213.524 28.8533 212.596 28.64 211.572 28.64C210.1 28.64 208.841 29.1093 207.796 30.048C206.772 30.9867 206.185 32.288 206.036 33.952H217.108ZM227.736 21.696L227.384 37.696H224.952L224.6 21.696H227.736ZM226.296 44.192C225.741 44.192 225.272 44 224.888 43.616C224.504 43.232 224.312 42.7627 224.312 42.208C224.312 41.6533 224.504 41.184 224.888 40.8C225.272 40.416 225.741 40.224 226.296 40.224C226.829 40.224 227.277 40.416 227.64 40.8C228.024 41.184 228.216 41.6533 228.216 42.208C228.216 42.7627 228.024 43.232 227.64 43.616C227.277 44 226.829 44.192 226.296 44.192Z" fill="black"/>
</svg>
